<svg width="291" height="290" viewBox="0 0 291 290" fill="none" xmlns="http://www.w3.org/2000/svg">
<mask id="path-1-inside-1_504_115" fill="white">
<rect x="146.466" width="203.788" height="206.36" rx="16" transform="rotate(45.2154 146.466 0)"/>
</mask>
<rect x="146.466" width="203.788" height="206.36" rx="16" transform="rotate(45.2154 146.466 0)" stroke="black" stroke-width="60" mask="url(#path-1-inside-1_504_115)"/>
<path d="M204.338 143.893C172.576 143.527 147.031 117.474 147.396 85.8155C147.408 84.8249 146.62 84.0124 145.638 84.0011C144.656 83.9898 143.85 84.7839 143.839 85.7745C143.474 117.437 117.404 142.899 85.7268 142.534C84.7445 142.522 83.9387 143.317 83.9273 144.307C83.9159 145.299 84.7032 146.111 85.6854 146.123C117.363 146.488 142.839 172.537 142.474 204.19C142.463 205.181 143.25 205.994 144.232 206.006C145.214 206.017 146.02 205.223 146.032 204.231C146.396 172.574 172.535 147.115 204.296 147.481C205.278 147.492 206.084 146.698 206.096 145.708C206.107 144.717 205.32 143.904 204.338 143.893Z" fill="black"/>
</svg>
