<svg width="405" height="250" viewBox="0 0 405 250" fill="none" xmlns="http://www.w3.org/2000/svg">
<path d="M17.12 230C13.1733 230 10.3467 229.173 8.64 227.52C6.93333 225.813 6.08 223.013 6.08 219.12V174H11.84V219.12C11.84 221.147 12.24 222.613 13.04 223.52C13.8933 224.427 15.2533 224.88 17.12 224.88H19.84V230H17.12ZM40.7663 230.64C36.2863 230.64 32.6863 229.253 29.9663 226.48C27.2463 223.707 25.8863 220.053 25.8863 215.52V204.56C25.8863 200.027 27.2463 196.373 29.9663 193.6C32.7396 190.827 36.3929 189.44 40.9263 189.44H47.4863C52.0196 189.44 55.6463 190.827 58.3663 193.6C61.1396 196.373 62.5262 200.027 62.5262 204.56V215.52C62.5262 220.053 61.1396 223.707 58.3663 226.48C55.5929 229.253 51.9129 230.64 47.3263 230.64H40.7663ZM47.3263 225.52C50.2063 225.52 52.4996 224.613 54.2063 222.8C55.9129 220.933 56.7663 218.507 56.7663 215.52V204.56C56.7663 201.573 55.9129 199.173 54.2063 197.36C52.4996 195.493 50.2596 194.56 47.4863 194.56H40.9263C38.1529 194.56 35.9129 195.493 34.2063 197.36C32.4996 199.173 31.6463 201.573 31.6463 204.56V215.52C31.6463 218.56 32.4729 220.987 34.1263 222.8C35.7796 224.613 37.9929 225.52 40.7663 225.52H47.3263ZM73.1113 190.08H78.7113V196.24C79.7779 194.373 81.3779 192.853 83.5113 191.68C85.6979 190.507 87.9646 189.92 90.3113 189.92H93.8313V195.12H90.3113C86.8979 195.12 84.1246 196.213 81.9913 198.4C79.9113 200.533 78.8713 203.387 78.8713 206.96V230H73.1113V190.08ZM113.579 230.64C109.099 230.64 105.499 229.333 102.779 226.72C100.059 224.053 98.6988 220.533 98.6988 216.16V204.72C98.6988 200.133 100.059 196.453 102.779 193.68C105.499 190.853 109.099 189.44 113.579 189.44H120.139C124.405 189.44 127.845 190.8 130.459 193.52C133.072 196.24 134.379 199.84 134.379 204.32V211.36H104.459V216.16C104.459 218.933 105.285 221.2 106.939 222.96C108.645 224.667 110.859 225.52 113.579 225.52H119.659C122.325 225.52 124.485 224.8 126.139 223.36C127.792 221.867 128.619 219.893 128.619 217.44H134.219C134.219 221.387 132.885 224.587 130.219 227.04C127.552 229.44 124.032 230.64 119.659 230.64H113.579ZM128.619 206.4V204.32C128.619 201.387 127.845 199.04 126.299 197.28C124.752 195.467 122.699 194.56 120.139 194.56H113.579C110.859 194.56 108.645 195.493 106.939 197.36C105.285 199.227 104.459 201.68 104.459 204.72V206.4H128.619ZM157.719 230.64C153.239 230.64 149.639 229.253 146.919 226.48C144.199 223.707 142.839 220.053 142.839 215.52V204.56C142.839 200.027 144.199 196.373 146.919 193.6C149.693 190.827 153.346 189.44 157.879 189.44H164.439C168.973 189.44 172.599 190.827 175.319 193.6C178.093 196.373 179.479 200.027 179.479 204.56V215.52C179.479 220.053 178.093 223.707 175.319 226.48C172.546 229.253 168.866 230.64 164.279 230.64H157.719ZM164.279 225.52C167.159 225.52 169.453 224.613 171.159 222.8C172.866 220.933 173.719 218.507 173.719 215.52V204.56C173.719 201.573 172.866 199.173 171.159 197.36C169.453 195.493 167.213 194.56 164.439 194.56H157.879C155.106 194.56 152.866 195.493 151.159 197.36C149.453 199.173 148.599 201.573 148.599 204.56V215.52C148.599 218.56 149.426 220.987 151.079 222.8C152.733 224.613 154.946 225.52 157.719 225.52H164.279ZM193.596 195.2H186.716V190.08H193.596V186.96C193.596 182.587 194.716 179.28 196.956 177.04C199.196 174.8 202.476 173.68 206.796 173.68H209.836V178.64H206.796C204.236 178.64 202.342 179.333 201.116 180.72C199.942 182.053 199.356 184.133 199.356 186.96V190.08H208.956V195.2H199.356V230H193.596V195.2ZM228.636 230.64C225.916 230.64 223.49 230 221.356 228.72C219.223 227.44 217.57 225.653 216.396 223.36C215.223 221.067 214.636 218.4 214.636 215.36V205.76C214.636 202.56 215.25 199.733 216.476 197.28C217.703 194.773 219.436 192.853 221.676 191.52C223.916 190.133 226.476 189.44 229.356 189.44H235.276C237.09 189.44 238.823 189.867 240.476 190.72C242.183 191.573 243.543 192.747 244.556 194.24V174H250.316V230H244.716V224.08C243.49 226.053 241.89 227.653 239.916 228.88C237.943 230.053 236.023 230.64 234.156 230.64H228.636ZM233.996 225.52C235.703 225.52 237.356 224.987 238.956 223.92C240.556 222.8 241.863 221.36 242.876 219.6C243.89 217.84 244.45 216.027 244.556 214.16V204.08C244.183 201.253 243.116 198.96 241.356 197.2C239.65 195.44 237.57 194.56 235.116 194.56H229.516C226.796 194.56 224.583 195.6 222.876 197.68C221.223 199.707 220.396 202.4 220.396 205.76V215.36C220.396 218.347 221.17 220.8 222.716 222.72C224.316 224.587 226.343 225.52 228.796 225.52H233.996ZM274.006 230.64C270.113 230.64 266.993 229.627 264.646 227.6C262.353 225.573 261.206 222.853 261.206 219.44V216.88C261.206 213.52 262.406 210.827 264.806 208.8C267.206 206.773 270.38 205.76 274.326 205.76H279.446C281.206 205.76 283.02 206.027 284.886 206.56C286.753 207.093 288.353 207.813 289.686 208.72V202.08C289.686 199.84 288.993 198.027 287.606 196.64C286.22 195.2 284.38 194.48 282.086 194.48H275.686C273.393 194.48 271.553 195.013 270.166 196.08C268.78 197.147 268.086 198.56 268.086 200.32H262.326C262.326 197.067 263.553 194.453 266.006 192.48C268.46 190.453 271.686 189.44 275.686 189.44H282.086C286.033 189.44 289.206 190.613 291.606 192.96C294.06 195.253 295.286 198.293 295.286 202.08V230H289.846V224.4C288.62 226.32 286.993 227.84 284.966 228.96C282.993 230.08 280.94 230.64 278.806 230.64H274.006ZM278.966 225.6C281.473 225.6 283.713 224.827 285.686 223.28C287.66 221.733 288.993 219.68 289.686 217.12V214.16C288.62 213.147 287.126 212.347 285.206 211.76C283.34 211.12 281.42 210.8 279.446 210.8H274.326C272.14 210.8 270.353 211.36 268.966 212.48C267.633 213.6 266.966 215.067 266.966 216.88V219.44C266.966 221.307 267.606 222.8 268.886 223.92C270.166 225.04 271.873 225.6 274.006 225.6H278.966ZM356.139 190.08L347.499 225.36C347.073 226.96 346.486 228.133 345.739 228.88C344.993 229.627 343.979 230 342.699 230H339.979L329.979 199.84L319.659 230H316.939C315.713 230 314.699 229.627 313.899 228.88C313.099 228.133 312.513 226.96 312.139 225.36L303.419 190.08H309.499L316.939 223.6L327.739 191.2H329.819C331.366 191.2 332.406 192.053 332.939 193.76L342.699 223.36L350.059 190.08H356.139ZM364.752 190.08H370.352V196C371.579 194.08 373.179 192.507 375.152 191.28C377.125 190.053 379.099 189.44 381.072 189.44H386.512C390.192 189.44 393.152 190.693 395.392 193.2C397.685 195.707 398.832 198.987 398.832 203.04V230H393.072V202.88C393.072 200.427 392.459 198.427 391.232 196.88C390.005 195.333 388.379 194.56 386.352 194.56H381.232C378.725 194.56 376.432 195.547 374.352 197.52C372.325 199.493 371.045 202.027 370.512 205.12V230H364.752V190.08Z" fill="black"/>
<mask id="path-2-outside-1_499_92" maskUnits="userSpaceOnUse" x="58.5385" y="47" width="76" height="114" fill="black">
<rect fill="white" x="58.5385" y="47" width="76" height="114"/>
<path d="M70.7385 160C67.4319 160 64.8719 159.093 63.0585 157.28C61.2452 155.467 60.3385 152.907 60.3385 149.6V48H72.1785V149.44H132.979V160H70.7385Z"/>
</mask>
<path d="M70.7385 160C67.4319 160 64.8719 159.093 63.0585 157.28C61.2452 155.467 60.3385 152.907 60.3385 149.6V48H72.1785V149.44H132.979V160H70.7385Z" fill="black"/>
<path d="M63.0585 157.28L62.3514 157.987L62.3514 157.987L63.0585 157.28ZM60.3385 48V47H59.3385V48H60.3385ZM72.1785 48H73.1785V47H72.1785V48ZM72.1785 149.44H71.1785V150.44H72.1785V149.44ZM132.979 149.44H133.979V148.44H132.979V149.44ZM132.979 160V161H133.979V160H132.979ZM70.7385 160V159C67.6169 159 65.3415 158.149 63.7657 156.573L63.0585 157.28L62.3514 157.987C64.4023 160.038 67.2469 161 70.7385 161V160ZM63.0585 157.28L63.7657 156.573C62.1898 154.997 61.3385 152.722 61.3385 149.6H60.3385H59.3385C59.3385 153.092 60.3006 155.936 62.3514 157.987L63.0585 157.28ZM60.3385 149.6H61.3385V48H60.3385H59.3385V149.6H60.3385ZM60.3385 48V49H72.1785V48V47H60.3385V48ZM72.1785 48H71.1785V149.44H72.1785H73.1785V48H72.1785ZM72.1785 149.44V150.44H132.979V149.44V148.44H72.1785V149.44ZM132.979 149.44H131.979V160H132.979H133.979V149.44H132.979ZM132.979 160V159H70.7385V160V161H132.979V160Z" fill="black" mask="url(#path-2-outside-1_499_92)"/>
<mask id="path-4-outside-2_499_92" maskUnits="userSpaceOnUse" x="256.773" y="47" width="89" height="114" fill="black">
<rect fill="white" x="256.773" y="47" width="89" height="114"/>
<path d="M268.973 160C265.666 160 263.106 159.093 261.293 157.28C259.479 155.467 258.573 152.907 258.573 149.6V48H304.973C312.866 48 319.799 49.5467 325.773 52.64C331.746 55.6267 336.386 59.9467 339.693 65.6C342.999 71.1467 344.653 77.5467 344.653 84.8V120C344.653 133.12 341.346 143.093 334.733 149.92C328.119 156.64 318.413 160 305.613 160H268.973ZM305.293 149.44C314.359 149.44 321.186 146.987 325.773 142.08C330.466 137.067 332.813 129.707 332.813 120V84.8C332.813 77.0133 330.199 70.72 324.973 65.92C319.853 61.0133 313.079 58.56 304.653 58.56H270.413V149.44H305.293Z"/>
</mask>
<path d="M268.973 160C265.666 160 263.106 159.093 261.293 157.28C259.479 155.467 258.573 152.907 258.573 149.6V48H304.973C312.866 48 319.799 49.5467 325.773 52.64C331.746 55.6267 336.386 59.9467 339.693 65.6C342.999 71.1467 344.653 77.5467 344.653 84.8V120C344.653 133.12 341.346 143.093 334.733 149.92C328.119 156.64 318.413 160 305.613 160H268.973ZM305.293 149.44C314.359 149.44 321.186 146.987 325.773 142.08C330.466 137.067 332.813 129.707 332.813 120V84.8C332.813 77.0133 330.199 70.72 324.973 65.92C319.853 61.0133 313.079 58.56 304.653 58.56H270.413V149.44H305.293Z" fill="black"/>
<path d="M261.293 157.28L260.586 157.987L260.586 157.987L261.293 157.28ZM258.573 48V47H257.573V48H258.573ZM325.773 52.64L325.313 53.528L325.319 53.5313L325.326 53.5344L325.773 52.64ZM339.693 65.6L338.83 66.1049L338.834 66.1121L339.693 65.6ZM334.733 149.92L335.446 150.621L335.451 150.616L334.733 149.92ZM325.773 142.08L325.043 141.397L325.042 141.397L325.773 142.08ZM324.973 65.92L324.281 66.642L324.289 66.6493L324.296 66.6565L324.973 65.92ZM270.413 58.56V57.56H269.413V58.56H270.413ZM270.413 149.44H269.413V150.44H270.413V149.44ZM268.973 160V159C265.851 159 263.576 158.149 262 156.573L261.293 157.28L260.586 157.987C262.637 160.038 265.481 161 268.973 161V160ZM261.293 157.28L262 156.573C260.424 154.997 259.573 152.722 259.573 149.6H258.573H257.573C257.573 153.092 258.535 155.936 260.586 157.987L261.293 157.28ZM258.573 149.6H259.573V48H258.573H257.573V149.6H258.573ZM258.573 48V49H304.973V48V47H258.573V48ZM304.973 48V49C312.734 49 319.504 50.52 325.313 53.528L325.773 52.64L326.233 51.752C320.094 48.5733 312.998 47 304.973 47V48ZM325.773 52.64L325.326 53.5344C331.129 56.4362 335.623 60.6225 338.83 66.1049L339.693 65.6L340.556 65.0951C337.149 59.2709 332.363 54.8172 326.22 51.7456L325.773 52.64ZM339.693 65.6L338.834 66.1121C342.037 71.4854 343.653 77.7042 343.653 84.8H344.653H345.653C345.653 77.3891 343.962 70.8079 340.552 65.0879L339.693 65.6ZM344.653 84.8H343.653V120H344.653H345.653V84.8H344.653ZM344.653 120H343.653C343.653 132.961 340.388 142.645 334.015 149.224L334.733 149.92L335.451 150.616C342.305 143.541 345.653 133.279 345.653 120H344.653ZM334.733 149.92L334.02 149.219C327.654 155.687 318.243 159 305.613 159V160V161C318.582 161 328.585 157.593 335.446 150.621L334.733 149.92ZM305.613 160V159H268.973V160V161H305.613V160ZM305.293 149.44V150.44C314.536 150.44 321.668 147.935 326.503 142.763L325.773 142.08L325.042 141.397C320.704 146.038 314.183 148.44 305.293 148.44V149.44ZM325.773 142.08L326.503 142.763C331.43 137.5 333.813 129.855 333.813 120H332.813H331.813C331.813 129.558 329.502 136.633 325.043 141.397L325.773 142.08ZM332.813 120H333.813V84.8H332.813H331.813V120H332.813ZM332.813 84.8H333.813C333.813 76.7637 331.103 70.1925 325.649 65.1835L324.973 65.92L324.296 66.6565C329.295 71.2475 331.813 77.263 331.813 84.8H332.813ZM324.973 65.92L325.665 65.198C320.324 60.0801 313.286 57.56 304.653 57.56V58.56V59.56C312.873 59.56 319.381 61.9466 324.281 66.642L324.973 65.92ZM304.653 58.56V57.56H270.413V58.56V59.56H304.653V58.56ZM270.413 58.56H269.413V149.44H270.413H271.413V58.56H270.413ZM270.413 149.44V150.44H305.293V149.44V148.44H270.413V149.44Z" fill="black" mask="url(#path-4-outside-2_499_92)"/>
<rect x="190.047" y="60.6" width="68.4936" height="69.5223" rx="9.5" transform="rotate(45.2154 190.047 60.6)" stroke="black" stroke-width="13"/>
<path d="M213.224 108.95C200.523 108.804 190.308 98.385 190.454 85.725C190.458 85.3288 190.143 85.0039 189.751 84.9994C189.358 84.9949 189.036 85.3124 189.031 85.7086C188.885 98.3701 178.46 108.552 165.792 108.406C165.4 108.402 165.077 108.719 165.073 109.115C165.068 109.512 165.383 109.837 165.776 109.842C178.443 109.988 188.631 120.404 188.485 133.062C188.481 133.458 188.796 133.784 189.188 133.788C189.581 133.793 189.903 133.475 189.908 133.079C190.054 120.419 200.506 110.238 213.208 110.385C213.6 110.389 213.923 110.072 213.927 109.675C213.932 109.279 213.617 108.954 213.224 108.95Z" fill="black"/>
</svg>
