<svg width="199" height="92" viewBox="0 0 199 92" fill="none" xmlns="http://www.w3.org/2000/svg">
<path d="M47.5 81.6331H1.9L14.6 9.63305H32.6L22.7 66.0331H50.3L47.5 81.6331Z" fill="white"/>
<rect x="92.3217" y="9.19232" width="51.1321" height="51.9416" rx="9.5" transform="rotate(45.2154 92.3217 9.19232)" stroke="white" stroke-width="13"/>
<path d="M110.568 45.2833C100.573 45.1681 92.5342 36.9691 92.649 27.0062C92.6526 26.6945 92.4048 26.4388 92.0957 26.4352C91.7866 26.4317 91.533 26.6816 91.5294 26.9933C91.4146 36.9574 83.2105 44.9704 73.2416 44.8555C72.9325 44.8519 72.6789 45.1018 72.6753 45.4136C72.6717 45.7257 72.9195 45.9814 73.2286 45.985C83.1975 46.0998 91.2148 54.2974 91.1 64.2587C91.0964 64.5705 91.3442 64.8266 91.6533 64.8301C91.9624 64.8337 92.216 64.5838 92.2196 64.2717C92.3344 54.3091 100.56 46.2972 110.555 46.4124C110.865 46.4159 111.118 46.166 111.122 45.8543C111.125 45.5425 110.878 45.2868 110.568 45.2833Z" fill="white"/>
<path d="M173.629 8.85473C182.362 8.85473 188.595 11.0547 192.329 15.4547C195.062 18.7881 196.429 22.9547 196.429 27.9547C196.429 29.7547 196.262 31.6547 195.929 33.6547L192.029 55.9547C190.695 63.4881 187.429 69.5214 182.229 74.0547C177.029 78.5881 170.295 80.8547 162.029 80.8547H132.929L145.629 8.85473H173.629ZM167.329 24.4547H160.829L153.729 65.2547H163.229C166.362 65.2547 168.795 64.4214 170.529 62.7547C172.329 61.0214 173.562 58.2214 174.229 54.3547L177.129 37.9547C177.395 36.4881 177.529 35.1547 177.529 33.9547C177.529 27.6214 174.129 24.4547 167.329 24.4547Z" fill="white"/>
</svg>
