<svg width="307" height="121" viewBox="0 0 307 121" fill="none" xmlns="http://www.w3.org/2000/svg">
<mask id="path-1-outside-1_500_101" maskUnits="userSpaceOnUse" x="11" y="0" width="76" height="114" fill="black">
<rect fill="white" x="11" width="76" height="114"/>
<path d="M23.2 113C19.8933 113 17.3333 112.093 15.52 110.28C13.7067 108.467 12.8 105.907 12.8 102.6V0.999992H24.64V102.44H85.44V113H23.2Z"/>
</mask>
<path d="M23.2 113C19.8933 113 17.3333 112.093 15.52 110.28C13.7067 108.467 12.8 105.907 12.8 102.6V0.999992H24.64V102.44H85.44V113H23.2Z" fill="white"/>
<path d="M15.52 110.28L14.8129 110.987L14.8129 110.987L15.52 110.28ZM12.8 0.999992V-7.62939e-06H11.8V0.999992H12.8ZM24.64 0.999992H25.64V-7.62939e-06H24.64V0.999992ZM24.64 102.44H23.64V103.44H24.64V102.44ZM85.44 102.44H86.44V101.44H85.44V102.44ZM85.44 113V114H86.44V113H85.44ZM23.2 113V112C20.0783 112 17.8029 111.149 16.2271 109.573L15.52 110.28L14.8129 110.987C16.8638 113.038 19.7084 114 23.2 114V113ZM15.52 110.28L16.2271 109.573C14.6513 107.997 13.8 105.722 13.8 102.6H12.8H11.8C11.8 106.092 12.762 108.936 14.8129 110.987L15.52 110.28ZM12.8 102.6H13.8V0.999992H12.8H11.8V102.6H12.8ZM12.8 0.999992V1.99999H24.64V0.999992V-7.62939e-06H12.8V0.999992ZM24.64 0.999992H23.64V102.44H24.64H25.64V0.999992H24.64ZM24.64 102.44V103.44H85.44V102.44V101.44H24.64V102.44ZM85.44 102.44H84.44V113H85.44H86.44V102.44H85.44ZM85.44 113V112H23.2V113V114H85.44V113Z" fill="white" mask="url(#path-1-outside-1_500_101)"/>
<mask id="path-3-outside-2_500_101" maskUnits="userSpaceOnUse" x="209.234" y="0" width="89" height="114" fill="black">
<rect fill="white" x="209.234" width="89" height="114"/>
<path d="M221.434 113C218.128 113 215.568 112.093 213.754 110.28C211.941 108.467 211.034 105.907 211.034 102.6V0.999992H257.434C265.328 0.999992 272.261 2.54666 278.234 5.64C284.208 8.62667 288.848 12.9467 292.154 18.6C295.461 24.1467 297.114 30.5467 297.114 37.8V73C297.114 86.12 293.808 96.0933 287.194 102.92C280.581 109.64 270.874 113 258.074 113H221.434ZM257.754 102.44C266.821 102.44 273.648 99.9867 278.234 95.08C282.928 90.0667 285.274 82.7067 285.274 73V37.8C285.274 30.0133 282.661 23.72 277.434 18.92C272.314 14.0133 265.541 11.56 257.114 11.56H222.874V102.44H257.754Z"/>
</mask>
<path d="M221.434 113C218.128 113 215.568 112.093 213.754 110.28C211.941 108.467 211.034 105.907 211.034 102.6V0.999992H257.434C265.328 0.999992 272.261 2.54666 278.234 5.64C284.208 8.62667 288.848 12.9467 292.154 18.6C295.461 24.1467 297.114 30.5467 297.114 37.8V73C297.114 86.12 293.808 96.0933 287.194 102.92C280.581 109.64 270.874 113 258.074 113H221.434ZM257.754 102.44C266.821 102.44 273.648 99.9867 278.234 95.08C282.928 90.0667 285.274 82.7067 285.274 73V37.8C285.274 30.0133 282.661 23.72 277.434 18.92C272.314 14.0133 265.541 11.56 257.114 11.56H222.874V102.44H257.754Z" fill="white"/>
<path d="M213.754 110.28L213.047 110.987L213.047 110.987L213.754 110.28ZM211.034 0.999992V-7.62939e-06H210.034V0.999992H211.034ZM278.234 5.64L277.774 6.52799L277.781 6.53125L277.787 6.53443L278.234 5.64ZM292.154 18.6L291.291 19.1049L291.295 19.1121L292.154 18.6ZM287.194 102.92L287.907 103.621L287.912 103.616L287.194 102.92ZM278.234 95.08L277.504 94.3966L277.504 94.3971L278.234 95.08ZM277.434 18.92L276.742 19.642L276.75 19.6493L276.758 19.6565L277.434 18.92ZM222.874 11.56V10.56H221.874V11.56H222.874ZM222.874 102.44H221.874V103.44H222.874V102.44ZM221.434 113V112C218.313 112 216.037 111.149 214.461 109.573L213.754 110.28L213.047 110.987C215.098 113.038 217.943 114 221.434 114V113ZM213.754 110.28L214.461 109.573C212.886 107.997 212.034 105.722 212.034 102.6H211.034H210.034C210.034 106.092 210.996 108.936 213.047 110.987L213.754 110.28ZM211.034 102.6H212.034V0.999992H211.034H210.034V102.6H211.034ZM211.034 0.999992V1.99999H257.434V0.999992V-7.62939e-06H211.034V0.999992ZM257.434 0.999992V1.99999C265.195 1.99999 271.966 3.52002 277.774 6.52799L278.234 5.64L278.694 4.75201C272.556 1.5733 265.46 -7.62939e-06 257.434 -7.62939e-06V0.999992ZM278.234 5.64L277.787 6.53443C283.59 9.43615 288.084 13.6225 291.291 19.1049L292.154 18.6L293.017 18.0951C289.611 12.2709 284.825 7.81718 278.681 4.74557L278.234 5.64ZM292.154 18.6L291.295 19.1121C294.499 24.4854 296.114 30.7042 296.114 37.8H297.114H298.114C298.114 30.3891 296.423 23.8079 293.013 18.0879L292.154 18.6ZM297.114 37.8H296.114V73H297.114H298.114V37.8H297.114ZM297.114 73H296.114C296.114 85.9606 292.849 95.6455 286.476 102.224L287.194 102.92L287.912 103.616C294.766 96.5412 298.114 86.2794 298.114 73H297.114ZM287.194 102.92L286.482 102.219C280.116 108.687 270.705 112 258.074 112V113V114C271.044 114 281.046 110.593 287.907 103.621L287.194 102.92ZM258.074 113V112H221.434V113V114H258.074V113ZM257.754 102.44V103.44C266.997 103.44 274.13 100.935 278.965 95.7629L278.234 95.08L277.504 94.3971C273.165 99.0381 266.645 101.44 257.754 101.44V102.44ZM278.234 95.08L278.964 95.7634C283.892 90.5002 286.274 82.8554 286.274 73H285.274H284.274C284.274 82.5579 281.964 89.6331 277.504 94.3966L278.234 95.08ZM285.274 73H286.274V37.8H285.274H284.274V73H285.274ZM285.274 37.8H286.274C286.274 29.7637 283.565 23.1925 278.111 18.1835L277.434 18.92L276.758 19.6565C281.757 24.2475 284.274 30.263 284.274 37.8H285.274ZM277.434 18.92L278.126 18.198C272.786 13.0801 265.747 10.56 257.114 10.56V11.56V12.56C265.335 12.56 271.843 14.9466 276.742 19.642L277.434 18.92ZM257.114 11.56V10.56H222.874V11.56V12.56H257.114V11.56ZM222.874 11.56H221.874V102.44H222.874H223.874V11.56H222.874ZM222.874 102.44V103.44H257.754V102.44V101.44H222.874V102.44Z" fill="white" mask="url(#path-3-outside-2_500_101)"/>
<rect x="0.188963" y="8.91015" width="64.2414" height="65.0477" rx="9.5" transform="matrix(0.742397 0.66996 -0.713326 0.700833 152.078 16.6067)" stroke="white" stroke-width="13"/>
<path d="M147.653 91.0167C147.405 78.3254 156.976 68.4075 168.99 68.9087C169.366 68.9244 169.665 68.6188 169.657 68.2263C169.649 67.8339 169.338 67.5029 168.962 67.4872C156.947 66.9859 146.971 56.2798 146.723 43.6222C146.715 43.2297 146.404 42.8987 146.028 42.883C145.652 42.8673 145.353 43.1729 145.361 43.5653C145.609 56.223 136.038 66.1136 124.026 65.6124C123.651 65.5968 123.351 65.9023 123.359 66.2948C123.367 66.6873 123.678 67.0183 124.054 67.034C136.067 67.5352 146.044 78.2686 146.292 90.9599C146.3 91.3524 146.611 91.6834 146.987 91.6991C147.362 91.7147 147.661 91.4092 147.653 91.0167Z" fill="white"/>
</svg>
